# xmcd
#
# Track frame offsets: 
#        150
#        17385
#        37474
#        54144
#        70931
#        88230
#        104112
#        118079
#        134328
#        149939
#        166027
#        181149
#        196290
#        213694
#        229584
#        243826
#        256526
#        271105
#        288318
#        307766
#
# Disc length: 4344 seconds
#
# Revision: 0
# Processed by: cddbd v1.5.2PL0 Copyright (c) Steve Scherf et al.
# Submitted via: ExactAudioCopy v1.1
#
DISCID=1f10f614
DTITLE=Various Artist - Het Beste Uit De MNM 1000 (2018) - CD 2
DYEAR=2018
DGENRE=Top 40
TTITLE0=Luis Fonsi - Despacito
TTITLE1=The Weeknd Feat. Daft Punk - I Feel It Coming
TTITLE2=Miley Cyrus - Wrecking Ball
TTITLE3=Stan Van Samang - Goeiemorgend, Goeiendag
TTITLE4=Abba - Dancing Queen
TTITLE5=Britney Spears - Baby One More Time
TTITLE6=J Balvin and Willy William - Mi Gente
TTITLE7=Natasha Bedingfield - Unwritten
TTITLE8=Laura Tesoro - Higher
TTITLE9=Gers Pardoel - Zo Bijzonder
TTITLE10=LMFAO - Sexy And I Know It
TTITLE11=Axwell Λ Ingrosso - More Than You Know
TTITLE12=Paul and Fritz Kalkbrenner - Sky And Sand
TTITLE13=Little Mix - Touch
TTITLE14=Sevn Alias Feat. Lil Kleine and Boef - Patsergedrag
TTITLE15=The Radios - I'm Into Folk
TTITLE16=Ghost Rockers - Ghost Rockers
TTITLE17=James Morrison - I Won't Let You Go
TTITLE18=Train - Drops Of Jupiter
TTITLE19=Lana Del Rey - Video Games
EXTD=
EXTT0=
EXTT1=
EXTT2=
EXTT3=
EXTT4=
EXTT5=
EXTT6=
EXTT7=
EXTT8=
EXTT9=
EXTT10=
EXTT11=
EXTT12=
EXTT13=
EXTT14=
EXTT15=
EXTT16=
EXTT17=
EXTT18=
EXTT19=
PLAYORDER=
